<svg width="196" height="196" viewBox="0 0 196 196" fill="none" xmlns="http://www.w3.org/2000/svg">
<g clip-path="url(#clip0_188_2)">
<path d="M98 110.25C128.434 110.25 153.125 85.5586 153.125 55.125C153.125 24.6914 128.434 0 98 0C67.5664 0 42.875 24.6914 42.875 55.125C42.875 85.5586 67.5664 110.25 98 110.25ZM147 122.5H125.907C117.409 126.405 107.953 128.625 98 128.625C88.0469 128.625 78.6297 126.405 70.093 122.5H49C21.9352 122.5 0 144.435 0 171.5V177.625C0 187.77 8.23047 196 18.375 196H177.625C187.77 196 196 187.77 196 177.625V171.5C196 144.435 174.065 122.5 147 122.5Z" fill="black"/>
</g>
<defs>
<clipPath id="clip0_188_2">
<rect width="196" height="196" fill="white"/>
</clipPath>
</defs>
</svg>
